<svg xmlns="http://www.w3.org/2000/svg" xmlns:xlink="http://www.w3.org/1999/xlink" version="1.1" enable-background="new 0 0 298 298" width="40" height="40" style=""><rect id="backgroundrect" width="100%" height="100%" x="0" y="0" fill="none" stroke="none"/><defs><linearGradient id="svg_8" spreadMethod="pad"><stop stop-color="#4a90d6" stop-opacity="1" offset="0"/><stop stop-color="#b56f29" stop-opacity="1" offset="1"/></linearGradient></defs>
  
<g class="currentLayer" style=""><title>Layer 1</title><g id="svg_1" class="">
    <path d="M298,141.25h-34.101c-4-59.719-53.852-107.084-114.566-107.084S38.767,81.531,34.767,141.25H0v16h34.798   c4.244,59.483,53.99,106.584,114.535,106.584s110.291-47.101,114.535-106.584H298V141.25z M248.167,149   c0,54.497-44.337,98.834-98.834,98.834S50.499,203.497,50.499,149s44.337-98.834,98.834-98.834S248.167,94.503,248.167,149z" id="svg_2"/>
    <polygon points="176.086,100.25 149.611,175.077 122.857,100.25 102.652,100.25 141.529,199.25 157.693,199.25 196.291,100.25  " id="svg_3"/>
  </g><path fill="#000000" fill-opacity="1" stroke="#000000" stroke-opacity="1" stroke-width="7" stroke-dasharray="none" stroke-linejoin="miter" stroke-linecap="butt" stroke-dashoffset="" fill-rule="nonzero" opacity="1" marker-start="" marker-mid="" marker-end="" d="M247.80951793465934,36.35555476503188L293.04761351515464,36.35555476503188" id="svg_5" class=""/><path fill="" fill-opacity="1" stroke="#000000" stroke-opacity="1" stroke-width="7" stroke-dasharray="none" stroke-linejoin="miter" stroke-linecap="butt" stroke-dashoffset="" fill-rule="nonzero" opacity="1" marker-start="" marker-mid="" marker-end="" d="M7.333325638342103,34.76825317830097 L48.60316722054836,34.76825317830097 " id="svg_14" class=""/><path fill="" fill-opacity="1" stroke="#000000" stroke-opacity="1" stroke-width="7" stroke-dasharray="none" stroke-linejoin="miter" stroke-linecap="butt" stroke-dashoffset="" fill-rule="nonzero" opacity="1" marker-start="" marker-mid="" marker-end="" d="M27.174595589059834,18.101586379194543 L27.174595589059834,56.196824762769545 " id="svg_16" class=""/></g></svg>