<svg xmlns="http://www.w3.org/2000/svg" xmlns:xlink="http://www.w3.org/1999/xlink" version="1.1" enable-background="new 0 0 298 298" width="40" height="40"><rect id="backgroundrect" width="100%" height="100%" x="0" y="0" fill="none" stroke="none" class="" style=""/><defs><linearGradient id="svg_8" spreadMethod="pad"><stop stop-color="#4a90d6" stop-opacity="1" offset="0"/><stop stop-color="#b56f29" stop-opacity="1" offset="1"/></linearGradient></defs>
  
<g class="currentLayer" style=""><title>Layer 1</title><g id="svg_1" class="">
    <path d="M40.04810711291347,18.143851904707088 h-4.612934390005565 c-0.541090805548878,-9.185326636929238 -7.284705515104534,-16.470495446824806 -15.497652307128167,-16.470495446824806 S4.980958914200444,8.95852526777785 4.4398681086515674,18.143851904707088 H-0.2631579004778878 v2.4609458663217367 h4.707219462872459 c0.5740973446873595,9.149027685400991 7.303373147895973,16.39359088850225 15.493458853385164,16.39359088850225 s14.919361508697808,-7.244563203101258 15.493458853385164,-16.39359088850225 H40.04810711291347 V18.143851904707088 zM33.30706258468417,19.335872558706676 c0,8.38213542980848 -5.9975857614051415,15.20157023450266 -13.369542168904433,15.20157023450266 S6.567978246875301,27.71800798851516 6.567978246875301,19.335872558706676 s5.9975857614051415,-15.20157023450266 13.369542168904433,-15.20157023450266 S33.30706258468417,10.953737128898197 33.30706258468417,19.335872558706676 z" id="svg_2"/>
    <polygon points="23.556471586227417,11.837679147720337 19.97512698173523,23.346753358840942 16.35603976249695,11.837679147720337 13.622853994369507,11.837679147720337 18.881855726242065,27.06478238105774 21.068400144577026,27.06478238105774 26.289658308029175,11.837679147720337 " id="svg_3"/>
  </g><path fill="#000000" fill-opacity="1" stroke="#000000" stroke-opacity="1" stroke-width="7" stroke-dasharray="none" stroke-linejoin="miter" stroke-linecap="butt" stroke-dashoffset="" fill-rule="nonzero" opacity="1" marker-start="" marker-mid="" marker-end="" d="M34.49822414257905,3.6286781443332936 L36.52439289052602,3.6286781443332936 " id="svg_5" class="" transform="rotate(-88.99459838867188 35.51130676269531,3.628678560256963) "/><path fill="" fill-opacity="1" stroke="#000000" stroke-opacity="1" stroke-width="7" stroke-dasharray="none" stroke-linejoin="miter" stroke-linecap="butt" stroke-dashoffset="" fill-rule="nonzero" opacity="1" marker-start="" marker-mid="" marker-end="" d="M5.38372,3.7106L3.25742,3.7106" id="svg_14" class=""/><path fill="" fill-opacity="1" stroke="#000000" stroke-opacity="1" stroke-width="7" stroke-dasharray="none" stroke-linejoin="miter" stroke-linecap="butt" stroke-dashoffset="" fill-rule="nonzero" opacity="1" marker-start="" marker-mid="" marker-end="" d="M4.406121191103232,4.626092046169672 L4.406121191103232,2.693279191244014 " id="svg_16" class=""/></g></svg>